<svg xmlns="http://www.w3.org/2000/svg" width="1920" height="1080" viewBox="0 0 1920 1080">
  <defs>
    <linearGradient id="sky" x1="0" y1="0" x2="0" y2="1">
      <stop offset="0" stop-color="#8cc6ff"/>
      <stop offset="1" stop-color="#0b1220"/>
    </linearGradient>
    <linearGradient id="mist" x1="0" y1="0" x2="1" y2="1">
      <stop offset="0" stop-color="rgba(255,255,255,0.35)"/>
      <stop offset="1" stop-color="rgba(255,255,255,0)"/>
    </linearGradient>
  </defs>
  <rect width="1920" height="1080" fill="url(#sky)"/>
  <g opacity="0.85">
    <path d="M0 780 C 240 650, 430 690, 620 580 C 780 500, 980 520, 1160 430 C 1340 330, 1540 380, 1920 250 L1920 1080 L0 1080 Z" fill="#0a172e"/>
    <path d="M0 860 C 260 760, 450 790, 650 700 C 820 630, 1000 640, 1210 560 C 1400 510, 1600 540, 1920 470 L1920 1080 L0 1080 Z" fill="#0b1f3b" opacity="0.85"/>
    <path d="M0 930 C 280 860, 520 880, 740 820 C 900 780, 1080 790, 1300 740 C 1500 700, 1680 720, 1920 690 L1920 1080 L0 1080 Z" fill="#0d2a4f" opacity="0.75"/>
  </g>
  <ellipse cx="420" cy="260" rx="520" ry="220" fill="url(#mist)" opacity="0.55"/>
  <ellipse cx="1420" cy="180" rx="620" ry="260" fill="url(#mist)" opacity="0.40"/>
  <g opacity="0.9">
    <circle cx="1550" cy="300" r="6" fill="#ffffff"/>
    <path d="M1540 300 q10 -10 20 0" fill="none" stroke="#ffffff" stroke-width="2" stroke-linecap="round"/>
  </g>
</svg>
